<mxfile host="app.diagrams.net" modified="2021-04-28T04:05:09.669Z" agent="5.0 (Windows NT 10.0; Win64; x64) AppleWebKit/537.36 (KHTML, like Gecko) Chrome/90.0.4430.72 Safari/537.36" etag="3J61V7TwHWdN_g3xYgi5" version="14.6.6" type="github">
  <diagram id="VsCsrUdrNpwgQq1V50Kc" name="第 1 页">
    <mxGraphModel dx="1422" dy="762" grid="1" gridSize="10" guides="1" tooltips="1" connect="1" arrows="1" fold="1" page="1" pageScale="1" pageWidth="827" pageHeight="1169" math="0" shadow="0">
      <root>
        <mxCell id="0" />
        <mxCell id="1" parent="0" />
        <mxCell id="U9uHjOgowY-oFbP3fpFh-3" value="" style="edgeStyle=orthogonalEdgeStyle;rounded=0;orthogonalLoop=1;jettySize=auto;html=1;fontSize=17;fontColor=#FF0000;" parent="1" source="U9uHjOgowY-oFbP3fpFh-1" target="U9uHjOgowY-oFbP3fpFh-2" edge="1">
          <mxGeometry relative="1" as="geometry" />
        </mxCell>
        <mxCell id="U9uHjOgowY-oFbP3fpFh-1" value="这是测试文件" style="rounded=1;whiteSpace=wrap;html=1;strokeWidth=2;fillWeight=4;hachureGap=8;hachureAngle=45;fillColor=#1ba1e2;sketch=1;fontColor=#FF0000;fontStyle=1;fontSize=17;" parent="1" vertex="1">
          <mxGeometry x="150" y="220" width="120" height="60" as="geometry" />
        </mxCell>
        <mxCell id="U9uHjOgowY-oFbP3fpFh-2" value="Done" style="rhombus;whiteSpace=wrap;html=1;rounded=1;fontSize=17;fontColor=#FF0000;fontStyle=1;strokeWidth=2;fillColor=#1ba1e2;sketch=1;fillWeight=4;hachureGap=8;hachureAngle=45;" parent="1" vertex="1">
          <mxGeometry x="430" y="210" width="80" height="80" as="geometry" />
        </mxCell>
      </root>
    </mxGraphModel>
  </diagram>
</mxfile>
